<?xml version="1.0" encoding="UTF-8"?> <svg xmlns="http://www.w3.org/2000/svg" width="697" height="138" viewBox="0 0 697 138" fill="none"><g clip-path="url(#clip0_2401_116)"><path d="M478.91 25.5282H461.092V0H449.955V25.1582H432.137V0H421V32.9276H489.676V0H478.539V25.5282H478.91ZM512.691 18.8686H516.775L528.654 32.9276H542.018L525.313 15.1689L540.904 0H528.283L517.146 11.8391H512.691V0H501.555V32.9276H512.691V18.8686ZM590.648 13.319C590.648 5.91957 585.822 0 576.17 0H560.579C550.927 0 546.101 5.91957 546.101 13.319V20.3485C546.101 27.748 551.298 33.2976 560.579 33.2976H576.17C585.451 33.2976 590.648 28.118 590.648 20.3485V13.319ZM579.511 19.2386C579.511 23.6783 577.284 25.5282 572.458 25.5282H565.034C559.836 25.5282 557.609 23.6783 557.609 19.6086V14.059C557.609 9.6193 559.836 7.76944 565.034 7.76944H572.458C577.284 7.76944 579.511 10.3592 579.511 14.059V19.2386ZM614.777 19.2386V7.76944H631.853V32.9276H642.99V0H604.383V17.3887C604.383 24.0483 603.269 25.1582 597.701 25.1582V32.5576H602.527C610.322 32.9276 614.777 28.4879 614.777 19.2386ZM663.407 32.9276H678.256C682.339 32.9276 683.453 31.8177 685.309 29.2279V32.9276H696.446V11.8391C696.446 5.5496 692.733 0.369973 682.339 0.369973H666.006C655.611 0.369973 652.642 4.43968 652.642 9.98928H663.036V8.50938C663.036 7.39946 663.778 7.02949 667.49 7.02949H679.37C683.453 7.02949 685.309 7.76944 685.309 11.0992V15.1689C684.195 12.9491 682.339 11.8391 678.998 11.8391H665.634C655.24 11.8391 652.271 15.1689 652.271 20.7185V24.7882C652.642 30.3378 656.725 32.9276 663.407 32.9276ZM668.604 18.8686H680.112C684.195 18.8686 685.68 19.9786 685.68 22.5684C685.68 25.1582 684.195 26.2681 680.112 26.2681H668.604C664.521 26.2681 663.407 25.1582 663.407 22.5684C663.407 19.6086 664.892 18.8686 668.604 18.8686Z" fill="black"></path><path d="M53.4764 68.0104C63.6962 68.0104 71.981 59.7254 71.981 49.5052C71.981 39.2851 63.6962 31 53.4764 31C43.2565 31 34.9717 39.2851 34.9717 49.5052C34.9717 59.7254 43.2565 68.0104 53.4764 68.0104Z" fill="black"></path><path d="M53.4764 138C63.6962 138 71.981 129.715 71.981 119.495C71.981 109.275 63.6962 100.99 53.4764 100.99C43.2565 100.99 34.9717 109.275 34.9717 119.495C34.9717 129.715 43.2565 138 53.4764 138Z" fill="black"></path><path d="M36.9847 84.4977C36.9847 94.7178 28.6998 103.003 18.48 103.003C8.26016 103.003 -0.0246582 94.7178 -0.0246582 84.4977C-0.0246582 74.2775 8.26016 65.9924 18.48 65.9924C28.6998 65.9924 36.9847 74.2775 36.9847 84.4977Z" fill="black"></path><path d="M88.4709 103.003C98.6908 103.003 106.976 94.7178 106.976 84.4977C106.976 74.2775 98.6908 65.9924 88.4709 65.9924C78.2511 65.9924 69.9663 74.2775 69.9663 84.4977C69.9663 94.7178 78.2511 103.003 88.4709 103.003Z" fill="black"></path><path d="M145.79 56.4263H174.689L192.954 100.353H195.612L213.877 56.4263H242.776V113.531H225.552V69.6043H223.124L204.167 113.531H184.399L165.442 69.6043H163.014V113.531H145.79V56.4263Z" fill="black"></path><path d="M285.179 56.1951H311.882C328.643 56.1951 336.966 66.3676 336.966 79.0832V91.2208C336.966 104.283 328.296 113.531 311.997 113.531H285.179C269.111 113.531 260.094 104.168 260.094 90.9896V79.0832C260.094 66.4832 268.302 56.1951 285.179 56.1951ZM317.777 80.586C317.777 73.8814 313.847 69.3731 305.408 69.3731H292.346C283.445 69.3731 279.284 73.0722 279.284 80.4704V89.8337C279.284 97.0007 283.445 100.353 292.346 100.353H305.408C313.847 100.353 317.777 97.3475 317.777 89.7181V80.586Z" fill="black"></path><path d="M352.171 113.531V56.4263H400.375C417.83 56.4263 422.916 61.6281 422.916 72.841C422.916 78.274 420.72 82.7823 415.402 84.7474C421.644 86.3658 424.419 90.9897 424.419 97.9254C424.419 109.37 416.327 113.531 401.53 113.531H352.171ZM371.36 89.2557V101.625H399.565C403.958 101.625 407.31 99.6594 407.31 95.4979C407.31 91.7988 405.461 89.2557 399.103 89.2557H371.36ZM371.36 68.3327V78.6208H399.103C404.883 78.6208 405.692 75.3841 405.692 72.841C405.692 70.2979 404.074 68.3327 398.641 68.3327H371.36Z" fill="black"></path><path d="M459.445 72.9566H441.181C441.181 63.5933 446.267 56.4263 464.3 56.4263H492.621C510.655 56.4263 516.897 65.4428 516.897 76.5401V113.531H497.708V107.058C494.471 111.335 492.506 113.531 485.57 113.531H459.908C448.232 113.531 440.719 108.907 440.719 98.9658V92.03C440.719 82.5511 445.92 76.8869 463.838 76.8869H487.073C492.737 76.8869 495.627 78.7364 497.708 82.4355V75.2685C497.708 69.4887 494.471 68.3327 487.188 68.3327H466.843C460.717 68.3327 459.445 68.9107 459.445 71.107V72.9566ZM468.577 88.7933C461.873 88.7933 459.445 90.2961 459.445 95.2667C459.445 99.8906 461.642 101.625 468.577 101.625H488.344C495.396 101.625 497.708 100.006 497.708 95.2667C497.708 90.6429 495.396 88.7933 488.344 88.7933H468.577Z" fill="black"></path><path d="M532.556 113.531V56.4263H580.759C598.214 56.4263 603.301 61.6281 603.301 72.841C603.301 78.274 601.104 82.7823 595.787 84.7474C602.029 86.3658 604.803 90.9897 604.803 97.9254C604.803 109.37 596.712 113.531 581.915 113.531H532.556ZM551.745 89.2557V101.625H579.95C584.343 101.625 587.695 99.6594 587.695 95.4979C587.695 91.7988 585.846 89.2557 579.488 89.2557H551.745ZM551.745 68.3327V78.6208H579.488C585.268 78.6208 586.077 75.3841 586.077 72.841C586.077 70.2979 584.458 68.3327 579.025 68.3327H551.745Z" fill="black"></path><path d="M620.641 113.531V56.4263H637.865V100.353H639.946L669.076 56.4263H696.472V113.531H679.248V69.6043H676.705L648.5 113.531H620.641Z" fill="black"></path></g><defs><clipPath id="clip0_2401_116"><rect width="697" height="138" fill="white"></rect></clipPath></defs></svg> 